<?xml version="1.0" encoding="UTF-8"?>
<svg id="Layer_2" data-name="Layer 2" xmlns="http://www.w3.org/2000/svg" viewBox="0 0 127.27 149.33">
  <defs>
    <style>
      .cls-1 {
        fill: #a68af9;
      }
    </style>
  </defs>
  <g id="Layer_1-2" data-name="Layer 1">
    <path class="cls-1" d="M55.24,17.05h42.35V6.25c0-1.43,1.48-3.81,2.6-4.71,3.41-2.74,9.07-1.69,10.79,2.52.17.43.73,2.07.73,2.41v10.59h4.77c4.85,0,10.59,6.2,10.76,11.03l.03,64.98c-.34,3.28-1.88,5.74-4.33,7.82-4.25,3.61-9.8,6.97-14.37,10.35-16.22,11.98-32.27,24.21-48.69,35.95-1.01.72-2.84,2.92-4.01,1.87C37.25,125.15,19.15,100.89.6,76.91l-.6-1.45c1.94-10.39,3.39-20.95,5.62-31.26,11.68-11.98,23.49-24,35.17-35.86-.22-5.17,3.39-8.96,8.67-8.26,2.5.33,5.78,3.37,5.78,5.96v11.01ZM51.8,136.81l-27.04-70.16c4.86-15.33,11.2-30.31,15.99-45.64.26-.83.6-1.82.68-2.68l-28.62,48.32,39,70.15ZM41.12,25.25v4.09c0,1.17,2.04,3.43,3.08,4.05,4.67,2.76,10.68.25,11.17-5.31.06-.72.24-2.39-.41-2.83-.02,6.78-7.89,9.44-12.16,4.3l-1.68-4.3ZM97.59,25.37v3.17c0,3.6,4.43,6.07,7.68,5.84,2.92-.21,6.44-2.94,6.44-6.04v-2.97c-.65-.16-.36.73-.5,1.24-1.05,3.73-3.26,5.91-7.38,5.52-3.21-.3-4.91-2.64-5.73-5.52-.15-.51.15-1.4-.5-1.24ZM59.92,48.15c-1.31.44-2.09,1.39-2.25,2.78.42,5.28-.55,11.39,0,16.57.16,1.51,1.4,2.71,2.91,2.85,5.47.51,11.77-.43,17.33-.01,1.96-.38,2.49-1.64,2.62-3.46.3-3.99.39-11.61-.01-15.52-.17-1.68-1.04-3.07-2.83-3.25l-17.77.05ZM92,48.16c-1.29.3-2.11,1.48-2.25,2.78-.58,5.21.44,11.46,0,16.78.24,1.48,1.35,2.48,2.82,2.63,5.43.52,11.69-.42,17.21,0,1.64-.29,2.48-1.43,2.62-3.04.46-5.21-.36-11.08,0-16.36-.11-1.41-1.19-2.66-2.62-2.83l-17.78.05ZM60.14,78.14c-1.25.21-2.31,1.3-2.47,2.57-.62,5.15.48,11.51,0,16.78.31,1.54,1.27,2.48,2.83,2.62,5.51.52,11.82-.41,17.41,0,1.84-.26,2.48-1.79,2.62-3.46.33-3.87.33-11.24,0-15.11-.16-1.83-.86-3.23-2.84-3.45-5.41-.62-12.02.42-17.56.05ZM92.21,78.14c-1.43.3-2.3,1.32-2.46,2.78-.58,5.15.44,11.31,0,16.57.31,1.54,1.27,2.48,2.83,2.62,5.45.51,11.68-.41,17.21,0,1.26.03,2.47-1.44,2.62-2.63-.36-5.28.47-11.16,0-16.37-.15-1.72-1.07-2.84-2.84-3.03-5.4-.58-11.84.39-17.35.05Z"/>
  </g>
</svg>